<?xml version="1.0" encoding="utf-8"?>
<svg xmlns="http://www.w3.org/2000/svg" xmlns:xlink="http://www.w3.org/1999/xlink">
  <symbol id="clock" width="17" height="17" viewBox="0 0 17 17" fill="none">
    <path
      d="M8.5 0C3.80558 0 0 3.80558 0 8.5C0 13.1944 3.80558 17 8.5 17C13.1944 17 17 13.1944 17 8.5C16.994 3.80809 13.1919 0.00601673 8.5 0ZM8.86465 16.2525V14.7574C8.86465 14.556 8.70138 14.3928 8.5 14.3928C8.29862 14.3928 8.13535 14.556 8.13535 14.7574V16.2525C4.13691 16.0616 0.938428 12.8631 0.747533 8.86465H2.2426C2.44398 8.86465 2.60725 8.70138 2.60725 8.5C2.60725 8.29862 2.44398 8.13535 2.2426 8.13535H0.747533C0.938428 4.13691 4.13691 0.938428 8.13535 0.747533V2.2426C8.13535 2.44398 8.29862 2.60725 8.5 2.60725C8.70138 2.60725 8.86465 2.44398 8.86465 2.2426V0.747533C12.8631 0.938428 16.0616 4.13691 16.2525 8.13535H14.7574C14.556 8.13535 14.3928 8.29862 14.3928 8.5C14.3928 8.70138 14.556 8.86465 14.7574 8.86465H14.761H16.2561C16.0651 12.8644 12.8645 16.0634 8.86465 16.2525Z"
      fill="#005FA3" />
    <path
      d="M12.3471 11.8913L8.86465 8.35049V4.67117C8.86465 4.46979 8.70137 4.30652 8.5 4.30652C8.29862 4.30652 8.13535 4.46979 8.13535 4.67117V8.5C8.13576 8.59568 8.17373 8.68734 8.24109 8.75526L11.8256 12.4018C11.9666 12.5458 12.1976 12.5482 12.3416 12.4072C12.4856 12.2662 12.488 12.0352 12.3471 11.8913Z"
      fill="#005FA3" />
  </symbol>
  <symbol id="close" width="30" height="28" viewBox="0 0 30 28" fill="none">
    <path
      d="M0.664338 28L15 14.619L29.3357 28L30 27.3814L15.6633 13.9998L30 0.617771L29.3357 0L15 13.3806L0.664338 0L0 0.617771L14.3367 13.9998L0 27.3814L0.664338 28Z"
      fill="white" />
  </symbol>
  <symbol id="expert" width="132" height="126" viewBox="0 0 132 126" fill="none">
    <g clip-path="url(#clip0_35816_119)">
      <path
        d="M66 65.1887C74.3547 65.1887 93.9976 55.5913 93.9976 32.5942C93.9976 29.3864 93.9158 26.2876 93.6388 23.3598C93.1841 17.5974 91.9478 12.4908 88.8691 8.57687C84.9208 3.25145 78.012 0 66 0C53.99 0 47.0819 3.25046 43.1336 8.5739C40.0532 12.4881 38.8159 17.5967 38.3612 23.3608C38.0845 26.2883 38.0024 29.3867 38.0024 32.5942C38.0024 55.5913 57.6453 65.1887 66 65.1887ZM55.6222 10.7788C56.2324 9.71204 57.4012 9.04859 58.6721 9.04727C60.1377 9.04727 61.392 9.91501 61.9059 11.1378H70.0902C70.2627 10.7252 70.521 10.3464 70.8594 10.0228C71.5149 9.3947 72.3887 9.04793 73.3175 9.04694C74.5926 9.04661 75.7614 9.70642 76.3733 10.7692C76.4093 10.8313 76.4079 10.906 76.3698 10.9672C76.3324 11.0284 76.2635 11.0657 76.1897 11.0657L73.0858 11.0707C73.0311 11.1956 72.9268 11.5424 72.9282 12.3688C72.9296 13.1952 73.0352 13.5416 73.0906 13.6663L76.1946 13.6616C76.269 13.662 76.3366 13.6993 76.3747 13.7602C76.4131 13.821 76.4138 13.8963 76.3788 13.9585C75.7679 15.0246 74.5991 15.6887 73.3282 15.69L73.3234 15.6893C71.8616 15.6893 70.6083 14.8223 70.0944 13.5988H61.9101C61.7376 14.0114 61.48 14.3905 61.1416 14.7138C60.4861 15.3419 59.6123 15.689 58.6829 15.6907C58.6829 15.6903 58.6773 15.6907 58.6773 15.6907C57.4084 15.6907 56.239 15.0309 55.6267 13.9681C55.5907 13.9059 55.5928 13.8306 55.6302 13.7697C55.6672 13.7089 55.7365 13.6709 55.8106 13.6709L58.9138 13.6663C58.9686 13.5416 59.0735 13.1949 59.0714 12.3685C59.07 11.5417 58.9644 11.1953 58.909 11.0707L55.805 11.0756V11.076C55.7313 11.0753 55.6631 11.0379 55.625 10.9771C55.5879 10.9163 55.5865 10.8416 55.6222 10.7788ZM42.1678 27.6079C42.4902 28.2816 43.8605 30.8706 45.9817 31.1132C48.42 31.3922 52.4673 22.8702 66 22.8497C79.5323 22.8706 83.5799 31.3922 86.0183 31.1132C88.1394 30.8703 89.5098 28.2813 89.8322 27.6079C89.898 29.2581 89.9219 30.9284 89.9219 32.5942C89.9219 43.8354 84.7221 50.8004 80.3596 54.6638C74.863 59.5317 68.7608 61.2986 66 61.2986C63.2392 61.2986 57.1366 59.5317 51.6403 54.6638C47.2779 50.8004 42.0781 43.8354 42.0781 32.5942C42.0781 30.9284 42.102 29.2581 42.1678 27.6079Z"
        fill="black" />
      <path
        d="M117.978 98.617C116.549 90.1333 113.607 79.2051 107.704 75.321C103.675 72.6695 89.6168 65.4998 83.6136 62.4385L83.5034 62.3826C82.8171 62.0325 81.979 62.1026 81.3667 62.5614C78.2209 64.9187 74.7751 66.5074 71.125 67.2829C70.4802 67.4201 69.951 67.8574 69.7166 68.4468L65.9997 77.7989L62.2827 68.4468C62.0483 67.8574 61.5191 67.4198 60.8743 67.2829C57.2242 66.5074 53.7785 64.9187 50.6326 62.5614C50.0203 62.1026 49.1823 62.0322 48.4959 62.3826C42.5623 65.4093 28.3276 72.7273 24.3129 75.3097C17.5183 79.6795 14.5477 95.4918 14.0213 98.6173C13.969 98.9274 13.9991 99.2444 14.1089 99.5406C14.3077 100.076 18.5115 110.44 44.7842 114.221C47.0805 118.053 50.5107 121.239 54.6124 123.311C58.0969 125.071 62.0441 126.001 66.0281 126.001C67.5882 126.001 69.15 125.858 70.671 125.575C75.9287 124.599 80.7842 121.932 84.3432 118.065C85.4369 116.877 86.3944 115.587 87.2082 114.222C113.487 110.441 117.692 100.076 117.89 99.5406C118.001 99.2441 118.031 98.9267 117.978 98.617ZM86.8962 103.81C86.6399 108.248 84.7965 112.529 81.7231 115.867C78.6846 119.169 74.5258 121.467 70.0051 122.307C68.6926 122.551 67.36 122.671 66.0284 122.671C62.6374 122.671 59.255 121.889 56.2442 120.368C52.2062 118.328 48.9191 115.025 46.9985 111.067C45.0023 106.953 44.5428 102.22 45.7022 97.8233C46.8222 93.5719 49.4403 89.739 53.0401 87.021C56.7131 84.2479 61.3165 82.7194 65.9993 82.7194C68.0928 82.7194 70.1841 83.0179 72.1833 83.6096C76.5603 84.9038 80.4255 87.5946 83.0764 91.1594C85.8022 94.8251 87.1553 99.3221 86.8962 103.81Z"
        fill="black" />
      <path
        d="M69.2827 102.696C71.2393 103.066 73.1845 103.622 75.0089 104.394C76.7716 105.141 78.3511 106.194 79.9901 107.148C80.1027 107.215 80.2166 107.279 80.3306 107.343C80.8497 105.884 81.1354 104.323 81.1354 102.696C81.1354 101.07 80.8497 99.5084 80.3306 98.0496C78.6513 99.0062 77.0548 100.096 75.2748 100.884C73.3781 101.723 71.3321 102.309 69.2827 102.696Z"
        fill="black" />
      <path d="M79.9902 107.148C79.6265 106.937 80.1858 107.263 79.9902 107.148V107.148Z" fill="black" />
      <path
        d="M56.9912 104.394C58.8158 103.622 60.7604 103.066 62.7174 102.696C60.6378 102.304 58.5579 101.707 56.6365 100.845C54.8918 100.061 53.321 98.9904 51.6694 98.0493C51.1503 99.5081 50.8646 101.07 50.8646 102.696C50.8646 104.323 51.1503 105.885 51.6694 107.344C51.783 107.279 51.8973 107.215 52.0095 107.148C53.6489 106.194 55.2295 105.141 56.9912 104.394Z"
        fill="black" />
      <path d="M52.0095 107.148C51.8145 107.263 52.3731 106.937 52.0095 107.148V107.148Z" fill="black" />
      <path
        d="M68.7819 88.4971C68.8318 90.3872 69.0489 92.2741 68.8851 94.1643C68.7074 96.2102 68.2198 98.2623 67.5279 100.204C68.9547 98.6802 70.5851 97.2736 72.3599 96.1249C74.0104 95.0572 75.8466 94.3101 77.6023 93.4225C75.3926 90.9059 72.3014 89.1215 68.7819 88.4971Z"
        fill="black" />
      <path
        d="M64.4721 100.203C63.7798 98.2622 63.2926 96.21 63.1146 94.1638C62.9515 92.2736 63.1686 90.3868 63.2181 88.4966C59.6986 89.121 56.6078 90.9054 54.3977 93.4217C56.1829 94.3245 58.0495 95.0818 59.7215 96.177C61.4623 97.3181 63.0654 98.7018 64.4721 100.203Z"
        fill="black" />
      <path
        d="M63.1146 111.229C63.2929 109.184 63.7778 107.13 64.4721 105.19C63.0439 106.713 61.4142 108.12 59.6394 109.268C57.9896 110.337 56.1541 111.084 54.3977 111.971C56.6075 114.487 59.6986 116.271 63.2178 116.896C63.1683 115.006 62.9515 113.119 63.1146 111.229Z"
        fill="black" />
      <path
        d="M67.5283 105.19C68.2226 107.13 68.7078 109.184 68.8854 111.229C69.0492 113.119 68.8325 115.006 68.7822 116.896C72.3014 116.272 75.3926 114.487 77.6024 111.971C75.8178 111.068 73.9516 110.311 72.28 109.216C70.5377 108.075 68.9357 106.691 67.5283 105.19Z"
        fill="black" />
    </g>
    <defs>
      <clipPath id="clip0_35816_119">
        <rect width="132" height="126" fill="white" />
      </clipPath>
    </defs>
  </symbol>
  <symbol id="logo" viewBox="0 0 40 40">
    <g clip-path="url(#clip0_17_67)">
      <path
        d="M32.584 4.44957C32.5608 4.4264 32.5144 4.40322 32.4913 4.35687C32.5144 4.40322 32.5608 4.4264 32.584 4.44957Z"
        fill="#FFFAF7" />
      <path
        d="M32.1437 4.10192C32.2596 4.19462 32.3754 4.28732 32.4913 4.35684C32.3754 4.28732 32.2596 4.19462 32.1437 4.10192C32.1205 4.07874 32.0742 4.05557 32.051 4.03239L32.0046 4.00922L32.051 4.03239C32.0742 4.05557 32.1205 4.07874 32.1437 4.10192Z"
        fill="#FFFAF7" />
      <path d="M31.9583 3.96291L31.8887 3.91656L31.9583 3.96291Z" fill="#FFFAF7" />
      <path
        d="M31.7033 3.77751C31.7265 3.80068 31.7265 3.80068 31.7497 3.82386C31.7497 3.80068 31.7265 3.80068 31.7033 3.77751L31.657 3.75433L31.7033 3.77751Z"
        fill="#FFFAF7" />
      <path
        d="M31.6802 3.75434C31.6339 3.73116 31.6107 3.70799 31.5875 3.68481C31.6107 3.70799 31.6339 3.73116 31.6802 3.75434Z"
        fill="#FFFAF7" />
      <path
        d="M31.263 3.47626C31.2167 3.45309 31.1935 3.42991 31.1472 3.40674C31.1935 3.42991 31.2399 3.45309 31.263 3.47626Z"
        fill="#FFFAF7" />
      <path
        d="M23.2909 0.278082C23.2213 0.254907 23.1286 0.254907 23.0591 0.231732C23.0128 0.231732 22.9896 0.231732 22.9432 0.208557C22.9896 0.208557 23.0128 0.208557 23.0591 0.231732C23.1286 0.231732 23.2213 0.254907 23.2909 0.278082Z"
        fill="#FFFAF7" />
      <path
        d="M28.4589 1.87718C28.2503 1.78448 28.0649 1.69178 27.8795 1.62225C28.0881 1.69178 28.2735 1.78448 28.4589 1.87718Z"
        fill="#FFFAF7" />
      <path
        d="M30.7764 3.15179C30.8227 3.17497 30.8691 3.19814 30.8922 3.22132C30.8691 3.19814 30.8227 3.17497 30.7764 3.15179Z"
        fill="#FFFAF7" />
      <path
        d="M26.0719 0.92699C26.0255 0.903815 25.9792 0.903815 25.9328 0.88064C25.8865 0.857465 25.8401 0.857465 25.7938 0.83429C25.8401 0.857465 25.8865 0.857465 25.9328 0.88064C25.956 0.903815 26.0023 0.92699 26.0719 0.92699Z"
        fill="#FFFAF7" />
      <path
        d="M25.3071 0.718427C25.2839 0.695251 25.2607 0.695251 25.2375 0.695251H25.2144H25.2375C25.2607 0.695251 25.2839 0.695251 25.3071 0.718427Z"
        fill="#FFFAF7" />
      <path
        d="M27.7404 1.55273C27.8099 1.57591 27.8563 1.59908 27.8795 1.62226C27.8331 1.59908 27.8099 1.57591 27.7404 1.55273Z"
        fill="#FFFAF7" />
      <path
        d="M30.2665 2.82731L30.3592 2.89684C30.4287 2.94319 30.4983 2.96636 30.5446 3.01271C30.4751 2.96636 30.4287 2.94319 30.3592 2.89684L30.2665 2.82731C30.2433 2.82731 30.2433 2.80414 30.2202 2.80414C30.2433 2.82731 30.2433 2.82731 30.2665 2.82731Z"
        fill="#FFFAF7" />
      <path
        d="M32.7462 4.58859C32.6999 4.54224 32.6535 4.51907 32.6072 4.47272C32.6535 4.51907 32.6999 4.54224 32.7462 4.58859Z"
        fill="#FFFAF7" />
      <path
        d="M29.9884 2.66506C30.0348 2.68824 30.0811 2.71141 30.1275 2.73459C30.0811 2.71141 30.0348 2.68824 29.9884 2.66506L29.9652 2.64189C29.9421 2.64189 29.9421 2.61871 29.9189 2.61871C29.9421 2.61871 29.9421 2.64189 29.9652 2.64189L29.9884 2.66506Z"
        fill="#FFFAF7" />
      <path
        d="M28.5052 1.90031L28.6674 1.99301C28.7369 2.01619 28.8065 2.06254 28.8528 2.08571C28.7833 2.06254 28.7138 2.01619 28.6674 1.99301L28.5052 1.90031C28.5052 1.90031 28.5052 1.87714 28.5052 1.90031C28.5052 1.87714 28.5052 1.90031 28.5052 1.90031Z"
        fill="#FFFAF7" />
      <path
        d="M27.022 1.27458C27.1611 1.32093 27.3233 1.39045 27.5087 1.45998C27.5319 1.45998 27.5319 1.45998 27.555 1.48315C27.5319 1.48315 27.5319 1.48315 27.5087 1.45998C27.3233 1.39045 27.1611 1.32093 27.022 1.27458L26.9293 1.2514H26.9061H26.9293L27.022 1.27458Z"
        fill="#FFFAF7" />
      <path
        d="M0.208557 17.1031C0.208557 17.0799 0.208557 17.0336 0.231732 17.0104V16.9872V17.0104C0.208557 17.0336 0.208557 17.0568 0.208557 17.1031Z"
        fill="#FFFAF7" />
      <path
        d="M0.115845 17.7752C0.115845 17.752 0.115845 17.7289 0.115845 17.7057C0.13902 17.7289 0.115845 17.752 0.115845 17.7752Z"
        fill="#FFFAF7" />
      <path
        d="M0.0463683 18.54V18.5168C0.0463683 18.5168 0.0463683 18.5168 0.0463683 18.54C0.0463683 18.6095 0.0231934 18.7022 0.0231934 18.7717C0.0463683 18.679 0.0463683 18.6095 0.0463683 18.54Z"
        fill="#FFFAF7" />
      <path
        d="M10.4519 26.7207C10.4519 26.7439 10.4751 26.7671 10.4751 26.7671C10.4519 26.7671 10.4519 26.7439 10.4519 26.7207Z"
        fill="#FFFAF7" />
      <path
        d="M20.7416 0.0231323C21.1819 0.0463073 21.6454 0.0694823 22.0857 0.115832C21.6454 0.0694823 21.2051 0.0231323 20.7416 0.0231323Z"
        fill="#FFFAF7" />
      <path
        d="M24.1947 0.440308C24.3337 0.463483 24.4496 0.486658 24.5655 0.533008C24.4496 0.486658 24.3106 0.463483 24.1947 0.440308Z"
        fill="#FFFAF7" />
      <path
        d="M28.8992 2.08575C29.2004 2.2248 29.4785 2.38703 29.7566 2.54925C29.4785 2.38703 29.2004 2.2248 28.8992 2.08575Z"
        fill="#FFFAF7" />
      <path
        d="M33.0243 4.82037C32.978 4.79719 32.9548 4.75084 32.9085 4.72767L32.8389 4.65814L32.9085 4.72767C32.9548 4.75084 33.0012 4.79719 33.0243 4.82037Z"
        fill="#FFFAF7" />
      <path
        d="M13.4647 8.71381C15.1796 6.88298 17.2654 5.44614 19.6292 4.54231C20.3476 4.26421 21.0661 4.03246 21.8077 3.87024C21.0661 4.05564 20.3476 4.26421 19.6292 4.54231C17.2422 5.46931 15.1564 6.88298 13.4647 8.71381Z"
        fill="#FFFAF7" />
      <path
        d="M17.0104 34.183C15.0406 33.0011 13.3256 31.402 11.9815 29.4785C11.4948 28.7832 11.0776 28.0648 10.7068 27.3C11.0776 28.0416 11.4948 28.7832 11.9815 29.4785C13.3256 31.3788 15.0406 32.9779 17.0104 34.183Z"
        fill="#FFFAF7" />
      <path
        d="M4.28737 30.2665C1.5759 27.5782 0.0695249 24.0092 0 20.2085V20.1622V20.0927C0 20.0695 0 20.0463 0 20.0463C0 20.0695 0 20.0927 0 20.0927C0 20.1158 0 20.139 0 20.1622V20.2085C0.0695249 24.0092 1.5759 27.5782 4.28737 30.2665C6.99884 32.9316 10.591 34.4148 14.4148 34.4148C15.0174 34.4148 15.6199 34.3685 16.2225 34.2989C15.6199 34.3685 15.0174 34.4148 14.4148 34.4148C10.591 34.4148 6.99884 32.9316 4.28737 30.2665Z"
        fill="#FFFAF7" />
      <path
        d="M33.4647 5.21436C33.511 5.26071 33.5342 5.28389 33.5805 5.30706C33.5574 5.28389 33.511 5.26071 33.4647 5.21436L33.4183 5.16801L33.3951 5.14484L33.4183 5.16801L33.4647 5.21436Z"
        fill="#FFFAF7" />
      <path
        d="M34.0209 5.72424C33.9977 5.70106 33.9745 5.67789 33.9513 5.65471C33.9282 5.63154 33.8818 5.58519 33.8586 5.56201C33.8818 5.58519 33.9282 5.63154 33.9513 5.65471C33.9513 5.67789 33.9977 5.70106 34.0209 5.72424Z"
        fill="#FFFAF7" />
      <path
        d="M33.7196 5.44609C33.6964 5.42292 33.6501 5.39974 33.6269 5.35339C33.6501 5.37657 33.6732 5.42292 33.7196 5.44609Z"
        fill="#FFFAF7" />
      <path
        d="M0.23175 16.9409V16.9872C0.23175 17.0104 0.23175 17.0568 0.208575 17.0799V17.1031C0.208575 17.1263 0.208575 17.1495 0.208575 17.1726V17.219V17.2422V17.2653V17.2885C0.208575 17.358 0.1854 17.4276 0.1854 17.4971C0.1854 17.5666 0.162225 17.613 0.162225 17.6825C0.162225 17.7057 0.162225 17.7288 0.162225 17.752C0.162225 17.8215 0.13905 17.8911 0.13905 17.9606C0.13905 18.0069 0.13905 18.0765 0.115875 18.1228V18.1692C0.115875 18.1923 0.115875 18.2155 0.115875 18.2387C0.115875 18.2619 0.115875 18.285 0.115875 18.3082C0.115875 18.3314 0.115875 18.3314 0.115875 18.3546C0.115875 18.3777 0.115875 18.3777 0.115875 18.4009C0.115875 18.4241 0.115875 18.4473 0.115875 18.4704V18.4936C0.115875 18.5631 0.0926999 18.6558 0.0926999 18.7254C0.0926999 18.7717 0.0926999 18.7949 0.0926999 18.8412C0.0926999 18.8876 0.0926999 18.9108 0.0926999 18.9571C0.0926999 18.9571 0.0926999 18.9571 0.0926999 18.9803V19.0035V19.0266V19.0498C0.0926999 19.0962 0.0926999 19.1425 0.0926999 19.1889C0.0926999 19.212 0.0926999 19.2352 0.0926999 19.2352C0.0926999 19.3279 0.0926999 19.3974 0.0926999 19.467C0.0926999 19.4901 0.0926999 19.4901 0.0926999 19.5133V19.5365C0.0926999 19.606 0.0926999 19.6755 0.0926999 19.7219V19.7682V19.7914V19.8609C0 19.9305 0 19.9305 0 19.9536C0 19.9768 0 19.9768 0 20C0 20.0232 0 20.0232 0 20.0463C0 20.0695 0 20.0927 0 20.0927V20.1622V20.2086C0.0463499 24.0093 1.5759 27.5782 4.28737 30.2433C6.99884 32.9084 10.591 34.3916 14.4148 34.3916C15.0174 34.3916 15.6199 34.3453 16.2225 34.2758C16.5006 34.2526 16.7555 34.2062 17.0336 34.1599C15.0637 32.978 13.3488 31.3789 12.0046 29.4554C11.518 28.7601 11.1008 28.0417 10.73 27.2769C10.6373 27.1147 10.5678 26.9293 10.4983 26.7671C10.4983 26.7439 10.4751 26.7207 10.4751 26.7207C9.54809 24.6118 9.06141 22.3407 9.06141 20C9.06141 16.5933 10.0811 13.3256 12.0278 10.5214C12.4681 9.87252 12.9548 9.26997 13.4878 8.71377C15.2028 6.88295 17.2885 5.4461 19.6524 4.54228C20.3708 4.26418 21.0892 4.03243 21.8308 3.8702C23.0591 3.56893 24.3337 3.42988 25.6315 3.42988C28.6443 3.42988 31.5411 4.241 34.0672 5.7242C34.044 5.70103 34.0209 5.67785 33.9977 5.65467C33.9745 5.6315 33.9282 5.58515 33.905 5.56198L33.8818 5.5388C33.8586 5.51562 33.8123 5.49245 33.7891 5.4461C33.7659 5.42292 33.7196 5.39975 33.6964 5.3534C33.6964 5.3534 33.6964 5.3534 33.6732 5.33022C33.6269 5.30705 33.6037 5.2607 33.5574 5.23753L33.511 5.19117L33.4878 5.168C33.4415 5.12165 33.3951 5.0753 33.3256 5.02895C33.2561 4.9826 33.2097 4.93625 33.1634 4.8899C33.1402 4.86673 33.117 4.86673 33.117 4.84355C33.0707 4.82038 33.0475 4.77403 33.0012 4.75085L32.9316 4.68133L32.8853 4.63498L32.8621 4.6118L32.8389 4.58863C32.7926 4.54228 32.7462 4.5191 32.6999 4.47275C32.6767 4.44958 32.6304 4.4264 32.6072 4.38005C32.4913 4.28735 32.3754 4.19465 32.2827 4.12513C32.2596 4.10195 32.2132 4.07878 32.19 4.0556L32.1437 4.03243L32.1205 4.00925C32.1205 4.00925 32.1205 4.00925 32.0973 4.00925L32.0278 3.9629L32.0046 3.93973L31.9119 3.8702L31.8888 3.84703C31.8656 3.82385 31.8656 3.82385 31.8424 3.80068L31.8192 3.7775C31.7961 3.75433 31.7497 3.73115 31.7265 3.70798L31.7034 3.6848C31.6107 3.61528 31.5411 3.56893 31.4484 3.4994C31.4021 3.47623 31.3789 3.45305 31.3326 3.42988L31.3094 3.4067C31.263 3.36035 31.1935 3.33718 31.1472 3.29083C31.124 3.29083 31.124 3.26765 31.1008 3.26765C31.0545 3.24448 31.0081 3.2213 30.9849 3.19813C30.9154 3.15178 30.8691 3.1286 30.7995 3.08225C30.73 3.0359 30.6837 3.01273 30.6141 2.96638L30.5214 2.89685C30.4983 2.89685 30.4983 2.87368 30.4751 2.87368C30.4519 2.87368 30.4287 2.8505 30.4056 2.8505C30.3824 2.8505 30.3824 2.82733 30.3592 2.82733C30.3129 2.80415 30.2665 2.78098 30.2202 2.7578L30.197 2.73463C30.1738 2.73463 30.1738 2.71145 30.1506 2.71145C30.1043 2.68828 30.0579 2.6651 30.0348 2.64193C30.0348 2.64193 30.0348 2.64193 30.0116 2.64193C29.7335 2.4797 29.4322 2.34065 29.1541 2.17843H29.1309C29.0614 2.15525 28.9919 2.1089 28.9455 2.08573L28.5052 1.90033C28.5052 1.90033 28.5052 1.90033 28.482 1.90033C28.2735 1.80763 28.0881 1.71493 27.9027 1.6454C27.8563 1.62223 27.81 1.59905 27.7636 1.59905H27.7404H27.7173L27.6477 1.57588C27.6246 1.57588 27.6014 1.5527 27.555 1.5527C27.5319 1.5527 27.5319 1.5527 27.5087 1.52953C27.3233 1.46 27.1611 1.39048 27.022 1.34413L26.9293 1.32095H26.9061L26.8134 1.29778C26.5585 1.20508 26.3268 1.11238 26.0487 1.04286C26.0487 1.04286 26.0487 1.04286 26.0255 1.04286C25.9791 1.01968 25.9328 1.01968 25.8864 0.996505C25.8401 0.97333 25.7937 0.97333 25.7474 0.950155C25.7242 0.950155 25.6779 0.92698 25.6547 0.92698C25.5388 0.903805 25.4461 0.857455 25.3302 0.834281C25.3071 0.834281 25.3071 0.834281 25.2839 0.834281C25.2839 0.695231 25.2607 0.695231 25.2375 0.695231H25.2144H25.1912C24.9826 0.648881 24.774 0.579356 24.5423 0.533006C24.4264 0.509831 24.2874 0.486656 24.1715 0.440306C23.9629 0.393956 23.7312 0.347606 23.5226 0.301256C23.4531 0.278081 23.3604 0.278081 23.2908 0.254906C23.2213 0.231731 23.1286 0.231731 23.0591 0.208556C23.0127 0.208556 22.9896 0.208556 22.9432 0.185381C22.8969 0.185381 22.8505 0.162206 22.8042 0.162206C22.5724 0.139031 22.3407 0.0926815 22.1089 0.0695065C21.6686 0.0231566 21.2051 -1.8388e-05 20.7648 -0.0231934C20.5098 -1.8388e-05 20.2549 -1.8388e-05 20 -1.8388e-05C19.5829 -1.8388e-05 19.1425 0.0231566 18.7254 0.0463316C18.679 0.0463316 18.6327 0.0463316 18.5863 0.0463316C18.1228 0.0695065 17.6593 0.115856 17.1958 0.185381C17.1031 0.208556 17.0336 0.208556 16.9409 0.231731L0.23175 16.9409Z"
        fill="#005FA3" />
      <path
        d="M39.7682 23.0359V23.0127C39.7682 22.9896 39.7682 22.9664 39.7914 22.92V22.8969C39.7914 22.8505 39.8146 22.8273 39.8146 22.781V22.7578V22.7346C39.8146 22.7115 39.8146 22.7115 39.8146 22.7115L39.8378 22.5956L39.8609 22.5029C39.8609 22.4102 39.8841 22.3407 39.8841 22.2711C39.8841 22.2016 39.9073 22.1321 39.9073 22.0626C39.9073 21.993 39.9305 21.9467 39.9305 21.9003V21.854C39.9305 21.8076 39.9305 21.7845 39.9305 21.7381V21.7149V21.6918C39.9305 21.6454 39.9305 21.5991 39.9536 21.5295V21.5064C39.9536 21.4368 39.9768 21.3673 39.9768 21.2746C39.9768 21.2051 39.9768 21.1124 40 21.0429V21.0197V20.9965V20.9733C40 20.9038 40 20.8343 40 20.7879C40 20.6952 40 20.6257 40 20.533V20.4867C40 20.4171 40 20.3708 40 20.3013V20.1622C40 20.1159 40 20.0695 40 20C40 19.9536 40 19.8841 40 19.8378V19.7914C39.9536 15.9907 38.4241 12.4218 35.7126 9.75666C33.0011 7.09153 29.409 5.60834 25.5851 5.60834C24.7045 5.60834 23.8239 5.67786 22.9896 5.84009C24.9594 7.02201 26.6744 8.62108 28.0185 10.5446C29.9652 13.3256 30.9849 16.5933 30.9849 20.0232C30.9849 23.4299 29.9652 26.6976 28.0185 29.5017C26.1182 32.2132 23.4762 34.299 20.394 35.4809C18.4936 36.2225 16.4774 36.5933 14.4148 36.5933C11.4021 36.5933 8.5052 35.7821 5.97913 34.299H6.0023C6.02548 34.3221 6.02548 34.3221 6.04865 34.3453L6.095 34.3916C6.11818 34.4148 6.16453 34.4612 6.1877 34.4844C6.23405 34.5307 6.30358 34.6002 6.3731 34.6466C6.41945 34.6929 6.4658 34.7161 6.48898 34.7624C6.5585 34.832 6.62803 34.9015 6.72073 34.971C6.76708 35.0174 6.81343 35.0637 6.85978 35.1101L6.88295 35.1333L7.022 35.2491L7.04517 35.2723C7.09152 35.2955 7.1147 35.3418 7.16105 35.365L7.18422 35.3882L7.2074 35.4114C7.23057 35.4345 7.27692 35.4809 7.32327 35.504H7.34645H7.36962C7.3928 35.5272 7.43915 35.5504 7.46232 35.5736C7.5782 35.6663 7.6709 35.7358 7.78677 35.8285C7.80995 35.8517 7.83312 35.8748 7.8563 35.8748C7.87947 35.898 7.90265 35.9212 7.949 35.9444C7.97217 35.9676 7.97217 35.9675 7.99535 35.9675L8.01852 35.9907C8.06487 36.0139 8.11122 36.0602 8.15757 36.0834L8.20392 36.1066C8.2271 36.1298 8.25027 36.1298 8.27345 36.1529C8.29662 36.1761 8.34297 36.1993 8.36615 36.2225L8.4125 36.2456C8.5052 36.3152 8.57472 36.3615 8.66742 36.431C8.71377 36.4542 8.73695 36.4774 8.7833 36.5006L8.80647 36.5237L8.89917 36.5933L8.99187 36.6628C9.03822 36.686 9.08457 36.7323 9.1541 36.7555C9.20045 36.7787 9.26997 36.825 9.31632 36.8482H9.50172L9.73347 37.0568C9.75665 37.0799 9.803 37.1031 9.84935 37.1263C9.91887 37.1726 9.9884 37.219 10.0579 37.2422C10.1043 37.2653 10.1738 37.3117 10.2201 37.3349C10.5214 37.4971 10.8227 37.6593 11.124 37.7984C11.1935 37.8215 11.263 37.8679 11.3325 37.8911C11.3325 37.8911 11.3557 37.8911 11.3557 37.9142C11.4252 37.9374 11.4716 37.9838 11.5411 38.0069C11.7265 38.0996 11.9119 38.1923 12.1205 38.2619C12.1668 38.285 12.2132 38.3082 12.2595 38.3314C12.2827 38.3314 12.2827 38.3546 12.3059 38.3546C12.3754 38.3777 12.4218 38.4009 12.4913 38.4241C12.6535 38.4936 12.8157 38.54 12.978 38.6095C13.0243 38.6327 13.0938 38.6558 13.1402 38.679C13.3951 38.7717 13.65 38.8644 13.8818 38.9339C13.9281 38.9571 13.9745 38.9571 14.0208 38.9803C14.0904 39.0035 14.1599 39.0266 14.2526 39.0498L14.3221 39.073C14.4148 39.0962 14.5075 39.1193 14.577 39.1425C14.6234 39.1657 14.6697 39.1657 14.7161 39.1889C15.2723 39.3279 15.8285 39.467 16.3847 39.5597C16.4542 39.5828 16.5237 39.5828 16.6164 39.606C16.7091 39.6292 16.7787 39.6292 16.8482 39.6524C16.9177 39.6755 17.0104 39.6755 17.0799 39.6755C18.0069 39.8146 18.9339 39.8609 19.8841 39.8609C20.8111 39.8609 21.7613 39.7914 22.6883 39.6755H22.7115C22.781 39.6755 22.8505 39.6524 22.9432 39.6524L39.6524 22.9432C39.7682 23.0359 39.7682 23.0359 39.7682 23.0359Z"
        fill="#222222" />
    </g>
    <defs>
      <clipPath id="clip0_17_67">
        <rect width="40" height="40" fill="white" />
      </clipPath>
    </defs>
  </symbol>
  <symbol id="mail" width="23" height="17" viewBox="0 0 23 17" fill="none">
    <path
      d="M19.6115 0H2.73165C1.22485 0 0 1.22485 0 2.73165V14.2684C0 15.7752 1.22485 17 2.73165 17H19.6069C21.1137 17 22.3385 15.7752 22.3385 14.2684V2.73627C22.3431 1.22947 21.1183 0 19.6115 0ZM21.0952 14.2684C21.0952 15.0865 20.4296 15.752 19.6115 15.752H2.73165C1.91354 15.752 1.24796 15.0865 1.24796 14.2684V2.73627C1.24796 1.91816 1.91354 1.25258 2.73165 1.25258H19.6069C20.425 1.25258 21.0905 1.91816 21.0905 2.73627V14.2684H21.0952Z"
      fill="#005FA3" />
    <path
      d="M14.088 8.35673L19.5513 3.45733C19.8055 3.22623 19.8287 2.83335 19.5975 2.57451C19.3664 2.3203 18.9736 2.29719 18.7147 2.52829L11.1807 9.29039L9.71093 7.97772C9.7063 7.9731 9.70168 7.96848 9.70168 7.96386C9.66933 7.9315 9.63697 7.90377 9.59999 7.87604L3.61903 2.52367C3.36019 2.29257 2.96731 2.31568 2.73621 2.57451C2.50511 2.83335 2.52822 3.22623 2.78705 3.45733L8.31506 8.39833L2.81016 13.552C2.56057 13.7877 2.54671 14.1806 2.78243 14.4348C2.90723 14.5642 3.07362 14.6335 3.24002 14.6335C3.39255 14.6335 3.54507 14.5781 3.66525 14.4671L9.25334 9.23955L10.7694 10.5938C10.8896 10.7001 11.0375 10.751 11.1854 10.751C11.3333 10.751 11.4858 10.6955 11.6014 10.5892L13.159 9.19333L18.7147 14.4717C18.8349 14.5873 18.9921 14.6428 19.1446 14.6428C19.311 14.6428 19.4728 14.5781 19.5975 14.4486C19.8333 14.199 19.824 13.8015 19.5744 13.5658L14.088 8.35673Z"
      fill="#005FA3" />
  </symbol>
  <symbol id="marker" width="17" height="17" viewBox="0 0 17 17" fill="none">
    <path
      d="M8.4882 0C5.05271 0 2.25781 2.7949 2.25781 6.23038C2.25781 7.80857 3.25222 10.0384 5.21354 12.8579C6.64711 14.919 8.05708 16.5139 8.11648 16.5808L8.4882 17L8.86005 16.5808C8.91932 16.5139 10.3293 14.919 11.763 12.8579C13.7242 10.0384 14.7187 7.80857 14.7187 6.23038C14.7187 2.7949 11.9237 0 8.4882 0ZM10.9525 12.2823C9.98351 13.6763 9.00414 14.876 8.4882 15.4881C7.97355 14.8777 6.99782 13.6825 6.02948 12.2903C4.21226 9.67793 3.2517 7.58237 3.2517 6.23038C3.2517 3.34301 5.60082 0.993889 8.4882 0.993889C11.3757 0.993889 13.7247 3.34301 13.7247 6.23038C13.7247 7.58095 12.7661 9.67365 10.9525 12.2823Z"
      fill="#005FA3" />
    <path
      d="M8.48821 2.30267C6.46062 2.30267 4.8111 3.95219 4.8111 5.97979C4.8111 8.00739 6.46062 9.65704 8.48821 9.65704C10.5159 9.65704 12.1655 8.00739 12.1655 5.97979C12.1655 3.95219 10.5159 2.30267 8.48821 2.30267ZM8.48821 8.66315C7.00873 8.66315 5.80499 7.4594 5.80499 5.97979C5.80499 4.50031 7.00873 3.29656 8.48821 3.29656C9.96783 3.29656 11.1716 4.50031 11.1716 5.97979C11.1716 7.4594 9.96783 8.66315 8.48821 8.66315Z"
      fill="#005FA3" />
  </symbol>
  <symbol id="microsoft" version="1.1" id="MS-symbol" x="0px" y="0px" viewBox="0 0 337.6 72"
    style="enable-background:new 0 0 337.6 72;" xml:space="preserve">
    <style type="text/css">
      .st0 {
        fill: #737373;
      }

      .st1 {
        fill: #F25022;
      }

      .st2 {
        fill: #7FBA00;
      }

      .st3 {
        fill: #00A4EF;
      }

      .st4 {
        fill: #FFB900;
      }
    </style>
    <path class="st0" d="M140.4,14.4v43.2h-7.5V23.7h-0.1l-13.4,33.9h-5l-13.7-33.9h-0.1v33.9h-6.9V14.4h10.8l12.4,32h0.2l13.1-32H140.4
	z M146.6,17.7c0-1.2,0.4-2.2,1.3-3c0.9-0.8,1.9-1.2,3.1-1.2c1.3,0,2.4,0.4,3.2,1.2s1.3,1.8,1.3,3c0,1.2-0.4,2.2-1.3,3
	c-0.9,0.8-1.9,1.2-3.2,1.2s-2.3-0.4-3.1-1.2C147.1,19.8,146.6,18.8,146.6,17.7z M154.7,26.6v31h-7.3v-31H154.7z M176.8,52.3
	c1.1,0,2.3-0.2,3.6-0.8c1.3-0.5,2.5-1.2,3.6-2v6.8c-1.2,0.7-2.5,1.2-4,1.5c-1.5,0.3-3.1,0.5-4.9,0.5c-4.6,0-8.3-1.4-11.1-4.3
	c-2.9-2.9-4.3-6.6-4.3-11c0-5,1.5-9.1,4.4-12.3c2.9-3.2,7-4.8,12.4-4.8c1.4,0,2.8,0.2,4.1,0.5c1.4,0.3,2.5,0.8,3.3,1.2v7
	c-1.1-0.8-2.3-1.5-3.4-1.9c-1.2-0.4-2.4-0.7-3.6-0.7c-2.9,0-5.2,0.9-7,2.8s-2.6,4.4-2.6,7.6c0,3.1,0.9,5.6,2.6,7.3
	C171.6,51.4,173.9,52.3,176.8,52.3z M204.7,26.1c0.6,0,1.1,0,1.6,0.1s0.9,0.2,1.2,0.3v7.4c-0.4-0.3-0.9-0.6-1.7-0.8
	s-1.6-0.4-2.7-0.4c-1.8,0-3.3,0.8-4.5,2.3s-1.9,3.8-1.9,7v15.6h-7.3v-31h7.3v4.9h0.1c0.7-1.7,1.7-3,3-4
	C201.2,26.6,202.8,26.1,204.7,26.1z M207.9,42.6c0-5.1,1.5-9.2,4.3-12.2c2.9-3,6.9-4.5,12-4.5c4.8,0,8.6,1.4,11.3,4.3
	s4.1,6.8,4.1,11.7c0,5-1.5,9-4.3,12c-2.9,3-6.8,4.5-11.8,4.5c-4.8,0-8.6-1.4-11.4-4.2C209.3,51.3,207.9,47.4,207.9,42.6z
	 M215.5,42.3c0,3.2,0.7,5.7,2.2,7.4s3.6,2.6,6.3,2.6c2.6,0,4.7-0.8,6.1-2.6c1.4-1.7,2.1-4.2,2.1-7.6c0-3.3-0.7-5.8-2.1-7.6
	c-1.4-1.7-3.5-2.6-6-2.6c-2.7,0-4.7,0.9-6.2,2.7C216.2,36.5,215.5,39,215.5,42.3z M250.5,34.8c0,1,0.3,1.9,1,2.5
	c0.7,0.6,2.1,1.3,4.4,2.2c2.9,1.2,5,2.5,6.1,3.9c1.2,1.5,1.8,3.2,1.8,5.3c0,2.9-1.1,5.2-3.4,7c-2.2,1.8-5.3,2.6-9.1,2.6
	c-1.3,0-2.7-0.2-4.3-0.5c-1.6-0.3-2.9-0.7-4-1.2v-7.2c1.3,0.9,2.8,1.7,4.3,2.2c1.5,0.5,2.9,0.8,4.2,0.8c1.6,0,2.9-0.2,3.6-0.7
	c0.8-0.5,1.2-1.2,1.2-2.3c0-1-0.4-1.8-1.2-2.6c-0.8-0.7-2.4-1.5-4.6-2.4c-2.7-1.1-4.6-2.4-5.7-3.8s-1.7-3.2-1.7-5.4
	c0-2.8,1.1-5.1,3.3-6.9c2.2-1.8,5.1-2.7,8.6-2.7c1.1,0,2.3,0.1,3.6,0.4s2.5,0.6,3.4,0.9V34c-1-0.6-2.1-1.2-3.4-1.7
	c-1.3-0.5-2.6-0.7-3.8-0.7c-1.4,0-2.5,0.3-3.2,0.8C250.9,33.1,250.5,33.8,250.5,34.8z M266.9,42.6c0-5.1,1.5-9.2,4.3-12.2
	c2.9-3,6.9-4.5,12-4.5c4.8,0,8.6,1.4,11.3,4.3s4.1,6.8,4.1,11.7c0,5-1.5,9-4.3,12c-2.9,3-6.8,4.5-11.8,4.5c-4.8,0-8.6-1.4-11.4-4.2
	C268.4,51.3,266.9,47.4,266.9,42.6z M274.5,42.3c0,3.2,0.7,5.7,2.2,7.4s3.6,2.6,6.3,2.6c2.6,0,4.7-0.8,6.1-2.6
	c1.4-1.7,2.1-4.2,2.1-7.6c0-3.3-0.7-5.8-2.1-7.6c-1.4-1.7-3.5-2.6-6-2.6c-2.7,0-4.7,0.9-6.2,2.7C275.3,36.5,274.5,39,274.5,42.3z
	 M322.9,32.6h-10.9v25h-7.4v-25h-5.2v-6h5.2v-4.3c0-3.2,1.1-5.9,3.2-8s4.8-3.1,8.1-3.1c0.9,0,1.7,0.1,2.4,0.1s1.3,0.2,1.8,0.4v6.3
	c-0.2-0.1-0.7-0.3-1.3-0.5c-0.6-0.2-1.3-0.3-2.1-0.3c-1.5,0-2.7,0.5-3.5,1.4c-0.8,0.9-1.2,2.4-1.2,4.2v3.7h10.9v-7l7.3-2.2v9.2h7.4
	v6h-7.4v14.5c0,1.9,0.4,3.2,1,4c0.7,0.8,1.8,1.2,3.3,1.2c0.4,0,0.9-0.1,1.5-0.3c0.6-0.2,1.1-0.4,1.5-0.7v6c-0.5,0.3-1.2,0.5-2.3,0.7
	c-1.1,0.2-2.1,0.3-3.2,0.3c-3.1,0-5.4-0.8-6.9-2.4c-1.5-1.6-2.3-4.1-2.3-7.4L322.9,32.6L322.9,32.6z" />
    <g>
      <rect class="st1" width="34.2" height="34.2" />
      <rect x="37.8" class="st2" width="34.2" height="34.2" />
      <rect y="37.8" class="st3" width="34.2" height="34.2" />
      <rect x="37.8" y="37.8" class="st4" width="34.2" height="34.2" />
    </g>
  </symbol>
  <symbol id="old_phone" width="35" height="34" viewBox="0 0 35 34" fill="none">
    <path
      d="M33.6316 12.143C32.948 11.4554 32.1635 11.213 31.6135 11.1305C31.1414 7.66608 30.702 5.8623 15.8299 5.8623C0.957923 5.8623 0 8.04019 0 11.8201V12.4648C0 13.4876 0.853553 14.3168 1.90647 14.3168H6.67761C7.73053 14.3168 8.58408 13.4876 8.58408 12.4648V11.8201C8.58408 8.89203 13.1992 8.80236 15.8299 8.80236C18.4605 8.80236 23.0756 8.89203 23.0756 11.8201V12.4648C23.0756 13.4876 23.9292 14.3168 24.9821 14.3168H29.7533C30.8062 14.3168 31.6598 13.4876 31.6598 12.4648V12.2168C32.0113 12.3007 32.4551 12.4831 32.848 12.8782C33.8057 13.8419 34.1236 15.7038 33.7669 18.263C33.1484 22.6973 31.3546 24.2811 29.4442 24.8082V24.0368C29.4442 23.2536 29.2427 22.4784 28.8341 21.8011C26.9277 18.6315 24.2204 15.819 20.7805 13.3399V11.4667C20.7805 11.3212 20.658 11.2022 20.5082 11.2022H17.6784C17.5259 11.2022 17.4061 11.3212 17.4061 11.4667V13.3294H14.176V11.4667C14.176 11.3212 14.0534 11.2022 13.9036 11.2022H11.0711C10.9212 11.2022 10.7987 11.3212 10.7987 11.4667V13.3294C7.35348 15.8137 4.6435 18.6261 2.73423 21.8011C2.32567 22.4784 2.12413 23.2536 2.12413 24.0368V25.7803C2.12413 28.2648 4.19679 30.2781 6.75425 30.2781H24.8143C27.3316 30.2781 29.3748 28.3262 29.4383 25.8957C32.5003 25.199 34.2372 22.7721 34.8463 18.4051C35.2554 15.472 34.8466 13.3652 33.6316 12.143ZM20.5154 24.083L18.6983 23.4545C18.891 23.0772 19.0022 22.6534 19.0022 22.2033C19.0022 20.6476 17.7031 19.3855 16.0988 19.3855C14.4974 19.3855 13.1955 20.6476 13.1955 22.2033C13.1955 23.7617 14.4974 25.0238 16.0988 25.0238C16.6919 25.0238 17.2428 24.8504 17.7023 24.5541L18.699 26.1457C17.9482 26.614 17.0573 26.889 16.0989 26.889C13.4352 26.889 11.2782 24.7909 11.2782 22.2034C11.2782 19.6184 13.4352 17.5204 16.0989 17.5204C18.7625 17.5204 20.9224 19.6185 20.9224 22.2034C20.9223 22.8723 20.7755 23.5073 20.5154 24.083Z"
      fill="#FFF9FC" />
  </symbol>
  <symbol id="phone" width="10" height="20" viewBox="0 0 10 20" fill="none">
    <path
      d="M8.8373 0.650818H1.1627C0.523313 0.650818 0 1.23663 0 1.95361V18.6359C0 19.3529 0.523313 19.9392 1.1627 19.9392H8.8373C9.47669 19.9392 10 19.354 10 18.6364V1.95361C10 1.23663 9.47669 0.650818 8.8373 0.650818ZM3.77238 1.58989H6.22762C6.30533 1.58989 6.36829 1.66043 6.36829 1.74805C6.36829 1.83513 6.30533 1.90567 6.22762 1.90567H3.77238C3.69467 1.90567 3.63171 1.83513 3.63171 1.74805C3.63171 1.66043 3.69467 1.58989 3.77238 1.58989ZM5 19.2878C4.67883 19.2878 4.41865 18.9963 4.41865 18.6359C4.41865 18.2755 4.67883 17.9845 5 17.9845C5.32117 17.9845 5.58135 18.2755 5.58135 18.6359C5.58135 18.9963 5.32117 19.2878 5 19.2878ZM9.19093 17.5282H0.809069V2.71688H9.19093V17.5282Z"
      fill="#005FA3" />
  </symbol>
  <symbol id="quality" width="132" height="126" viewBox="0 0 132 126" fill="none">
    <path
      d="M122.132 108.935L106.477 73.7837C112.01 66.1821 115.259 56.9571 115.259 47.0201C115.259 21.0931 93.1614 0 65.9999 0C38.8389 0 16.7413 21.0931 16.7413 47.0198C16.7413 56.9571 19.9902 66.1816 25.5234 73.7832L9.86801 108.935C9.11855 110.618 9.24849 112.233 10.2248 113.367C11.2012 114.5 12.8365 114.934 14.7105 114.559L26.6668 112.159C28.0801 111.875 30.0658 112.681 30.8328 113.85L37.3185 123.733C38.2725 125.186 39.6177 126 41.046 126C41.1404 126 41.2352 125.996 41.3304 125.989C42.8633 125.874 44.1717 124.843 44.9214 123.16L58.1575 93.4411C60.7122 93.8329 63.331 94.0394 65.9999 94.0394C68.6688 94.0394 71.2876 93.8329 73.8423 93.4411L87.0786 123.16C87.8281 124.842 89.137 125.874 90.6699 125.989C90.7651 125.996 90.8599 126 90.9543 126C92.382 126 93.7278 125.186 94.6815 123.733L101.167 113.85C101.934 112.681 103.92 111.874 105.333 112.159L117.289 114.558C119.164 114.934 120.799 114.5 121.775 113.366C122.751 112.233 122.881 110.618 122.132 108.935ZM21.7054 109.063L13.8473 110.64C13.7782 110.654 13.7159 110.664 13.6599 110.671C13.6785 110.62 13.7006 110.564 13.7287 110.502L28.4596 77.4259C30.0379 79.1987 31.7508 80.8591 33.5836 82.392L21.7054 109.063ZM26.6807 108.127L36.9844 84.9913C39.0358 86.4235 41.2058 87.7096 43.4797 88.8301L33.6813 110.831C31.9844 109.016 29.2106 107.939 26.6807 108.127ZM41.0607 121.593C41.0331 121.655 41.0063 121.71 40.9805 121.758C40.9473 121.715 40.9117 121.665 40.8743 121.607L36.4461 114.859L47.2894 90.5124C49.4432 91.3599 51.6725 92.066 53.9657 92.6179L41.0607 121.593ZM65.9999 90.0352C41.1517 90.0352 20.9364 70.7388 20.9364 47.0201C20.9364 23.3013 41.152 4.00443 65.9999 4.00443C90.8478 4.00443 111.064 23.3011 111.064 47.0201C111.064 70.739 90.8483 90.0352 65.9999 90.0352ZM91.1257 121.607C91.0883 121.665 91.0528 121.714 91.0195 121.758C90.9937 121.71 90.9669 121.655 90.9393 121.593L78.0345 92.6175C80.3278 92.066 82.5571 91.3594 84.7108 90.5119L95.5542 114.859L91.1257 121.607ZM98.3187 110.831L88.5203 88.8301C90.7942 87.7096 92.9639 86.4235 95.0153 84.9915L105.32 108.127C102.789 107.938 100.016 109.016 98.3187 110.831ZM118.152 110.64L110.294 109.063L98.4156 82.3923C100.249 80.8596 101.962 79.199 103.54 77.4261L118.271 110.502C118.299 110.564 118.321 110.62 118.339 110.671C118.284 110.664 118.222 110.654 118.152 110.64Z"
      fill="black" />
    <path
      d="M65.9999 21.6804C51.3623 21.6804 39.4537 33.0477 39.4537 47.0199C39.4537 60.9921 51.3623 72.3591 65.9999 72.3591C80.6377 72.3591 92.5462 60.9921 92.5462 47.0199C92.5462 33.0477 80.6377 21.6804 65.9999 21.6804ZM65.9999 68.355C53.6754 68.355 43.6488 58.7841 43.6488 47.0202C43.6488 35.2559 53.6754 25.6851 65.9999 25.6851C78.3243 25.6851 88.3514 35.2559 88.3514 47.0202C88.3514 58.7839 78.3246 68.355 65.9999 68.355Z"
      fill="black" />
    <path
      d="M65.9999 11.2881C45.3589 11.2881 28.5666 27.3171 28.5666 47.0198C28.5666 66.7223 45.3589 82.7514 65.9999 82.7514C86.6408 82.7514 103.434 66.7223 103.434 47.0198C103.434 27.3171 86.6408 11.2881 65.9999 11.2881ZM65.9999 78.7469C47.672 78.7469 32.7614 64.5144 32.7614 47.0196C32.7614 29.5251 47.672 15.292 65.9999 15.292C84.3277 15.292 99.2385 29.5248 99.2385 47.0196C99.2385 64.5144 84.3277 78.7469 65.9999 78.7469Z"
      fill="black" />
  </symbol>
  <symbol id="speed" width="132" height="126" viewBox="0 0 132 126" fill="none">
    <g clip-path="url(#clip0_35816_83)">
      <path
        d="M120.038 35.7983L116.108 37.3632L119.316 44.7098H105.299V48.7743H121.09L126.412 60.9679L121.09 73.1614H88.6156C82.9184 68.1336 75.3305 65.0324 66.9762 65.0324C58.6218 65.0324 51.034 68.1336 45.3367 73.1614H9.49229V77.2259H41.4874C37.4593 82.3269 35.0407 88.6492 35.0407 95.5162C35.0407 112.325 49.3669 126 66.9762 126C84.5854 126 98.9116 112.325 98.9116 95.5162C98.9116 88.6492 96.4931 82.3269 92.4649 77.2259H119.316L116.11 84.5725L120.04 86.1374L131.024 60.9679L120.038 35.7983ZM94.6536 95.5162C94.6536 110.083 82.2371 121.936 66.9762 121.936C51.7153 121.936 39.2987 110.083 39.2987 95.5162C39.2987 80.949 51.7153 69.0969 66.9762 69.0969C82.2371 69.0969 94.6536 80.949 94.6536 95.5162Z"
        fill="black" />
      <path
        d="M18.0297 64.199L55.5454 44.8011L60.2633 49.3046L51.513 50.3491C48.1917 50.7454 45.6859 53.4544 45.6859 56.6491C45.6859 60.1507 48.6708 63 52.3391 63C53.6527 63 54.9812 62.9309 56.2884 62.7906L75.0686 60.799L77.7938 50.3898L68.8093 38.3832L80.3401 36.8102L84.5322 50.8064H96.7826C100.304 50.8064 103.17 48.071 103.17 44.7096C103.17 41.3483 100.304 38.6129 96.7826 38.6129H94.2683L92.3755 29.5795L84.0319 20.0238C81.9454 17.6298 78.8775 16.258 75.6158 16.258C75.107 16.258 74.6003 16.3007 74.0978 16.3678L65.1473 12.0959L46.9015 15.5792C43.7293 16.1869 41.4278 18.8654 41.4278 21.9524C41.4278 25.5353 44.4829 28.4516 48.2364 28.4516H49.4074L48.8049 28.7645L10.7293 51.7209C8.62152 52.9911 7.36326 55.1717 7.36326 57.5515V58.1347C7.36326 61.9391 10.6037 65.0322 14.5892 65.0322C15.7857 65.0322 16.9758 64.7436 18.0297 64.199ZM73.1866 51.225L71.6558 57.0719L55.82 58.7505C54.6682 58.8745 53.4973 58.9354 52.3391 58.9354C51.0191 58.9354 49.9439 57.9091 49.9439 56.6491C49.9439 55.5009 50.8466 54.5254 52.041 54.3832L69.4288 52.3082L59.4501 42.783L64.8003 40.0171L73.1866 51.225ZM48.2364 24.387C46.8291 24.387 45.6859 23.2957 45.6859 21.9524C45.6859 20.7981 46.5481 19.7921 47.7361 19.5645L64.547 16.3556L68.7667 18.3695L60.1739 22.8446L49.9737 24.3566C49.8417 24.3769 49.714 24.387 49.582 24.387H48.2364ZM11.6213 58.1347V57.5515C11.6213 56.576 12.1387 55.6798 13.0031 55.1575L50.9616 32.2661L72.4052 21.1029C73.3867 20.5928 74.4959 20.3225 75.6158 20.3225C77.6128 20.3225 79.4864 21.1619 80.7617 22.6251L88.4155 31.3902L90.7809 42.6774H96.7826C97.9579 42.6774 98.9117 43.5878 98.9117 44.7096C98.9117 45.8314 97.9579 46.7419 96.7826 46.7419H87.7428L83.4166 32.2864L66.2991 34.6195L16.0007 60.6263C15.5686 60.8478 15.0789 60.9677 14.5892 60.9677C12.952 60.9677 11.6213 59.6975 11.6213 58.1347Z"
        fill="black" />
      <path
        d="M94.6536 24.3871C101.699 24.3871 107.428 18.9183 107.428 12.1935C107.428 5.46881 101.699 0 94.6536 0C87.6086 0 81.8794 5.46881 81.8794 12.1935C81.8794 18.9183 87.6086 24.3871 94.6536 24.3871ZM94.6536 4.06452C99.3502 4.06452 103.17 7.71039 103.17 12.1935C103.17 16.6767 99.3502 20.3226 94.6536 20.3226C89.9569 20.3226 86.1374 16.6767 86.1374 12.1935C86.1374 7.71039 89.9569 4.06452 94.6536 4.06452Z"
        fill="black" />
      <path d="M5.23423 73.1614H0.976166V77.2259H5.23423V73.1614Z" fill="black" />
      <path d="M5.23423 30.4839H0.976166V34.5484H5.23423V30.4839Z" fill="black" />
      <path d="M30.7826 30.4839H9.49229V34.5484H30.7826V30.4839Z" fill="black" />
      <path d="M9.49229 22.3547H5.23423V26.4193H9.49229V22.3547Z" fill="black" />
      <path d="M37.1697 22.3547H13.7504V26.4193H37.1697V22.3547Z" fill="black" />
      <path d="M13.7504 14.2258H9.49229V18.2903H13.7504V14.2258Z" fill="black" />
      <path d="M39.2987 14.2258H18.0084V18.2903H39.2987V14.2258Z" fill="black" />
      <path
        d="M66.9762 73.1614C54.0636 73.1614 43.5568 83.1906 43.5568 95.5162V97.5485H45.6858H47.8149H49.9439V93.484H47.9405C48.1577 91.6204 48.6707 89.8442 49.4287 88.192L51.1617 89.1471L53.2907 85.6272L51.5747 84.6802C52.7159 83.2048 54.0806 81.9041 55.6242 80.8149L56.6163 82.4529L60.3038 80.4206L59.3031 78.7663C61.034 78.0408 62.8948 77.5531 64.8471 77.3458V79.2582H69.1052V77.3458C71.0575 77.5531 72.9183 78.0408 74.6492 78.7663L73.6486 80.4206L77.336 82.4529L78.3282 80.8149C79.8738 81.9041 81.2364 83.2068 82.3776 84.6802L80.6616 85.6272L82.7906 89.1471L84.5237 88.192C85.2837 89.8442 85.7947 91.6204 86.0118 93.484H84.0084V97.5485H86.1375H88.2665H90.3955V95.5162C90.3955 83.1906 79.8887 73.1614 66.9762 73.1614Z"
        fill="black" />
      <path d="M65.2407 104.499L68.7036 106.86L79.3472 92.636L75.8843 90.2751L65.2407 104.499Z" fill="black" />
      <path d="M69.1052 111.774H64.8471V115.839H69.1052V111.774Z" fill="black" />
      <path d="M77.6213 111.774H73.3633V115.839H77.6213V111.774Z" fill="black" />
      <path d="M60.5891 111.774H56.331V115.839H60.5891V111.774Z" fill="black" />
    </g>
    <defs>
      <clipPath id="clip0_35816_83">
        <rect width="132" height="126" fill="white" />
      </clipPath>
    </defs>
  </symbol>

</svg>